<svg version="1.1" xmlns="http://www.w3.org/2000/svg" xmlns:xlink="http://www.w3.org/1999/xlink" width="3300" height="2200" viewBox="0 0 3300 2200">
    <g id="Notes">
        <rect height="2200" id="artboard" style="fill:white;opacity:1" width="3300" x="0" y="0"></rect>
        <line style="fill:none;stroke:black;opacity:1;stroke-width:0.5;" x1="263" x2="3036" y1="292" y2="292"></line>
        <text style="stroke:none;fill:black;font-family:sans-serif;font-size:13;font-weight:bold;" transform="matrix(1 0 0 1 263 322)" data="{&quot;leading&quot;:&quot;1.3&quot;}">Weight/Scale Variations</text>
        <text style="stroke:none;fill:black;font-family:sans-serif;font-size:13;text-anchor:middle;" transform="matrix(1 0 0 1 559.711 322)" data="{&quot;leading&quot;:&quot;1.3&quot;}">Ultralight</text>
        <text style="stroke:none;fill:black;font-family:sans-serif;font-size:13;text-anchor:middle;" transform="matrix(1 0 0 1 856.422 322)" data="{&quot;leading&quot;:&quot;1.3&quot;}">Thin</text>
        <text style="stroke:none;fill:black;font-family:sans-serif;font-size:13;text-anchor:middle;" transform="matrix(1 0 0 1 1153.13 322)" data="{&quot;leading&quot;:&quot;1.3&quot;}">Light</text>
        <text style="stroke:none;fill:black;font-family:sans-serif;font-size:13;text-anchor:middle;" transform="matrix(1 0 0 1 1449.84 322)" data="{&quot;leading&quot;:&quot;1.3&quot;}">Regular</text>
        <text style="stroke:none;fill:black;font-family:sans-serif;font-size:13;text-anchor:middle;" transform="matrix(1 0 0 1 1746.56 322)" data="{&quot;leading&quot;:&quot;1.3&quot;}">Medium</text>
        <text style="stroke:none;fill:black;font-family:sans-serif;font-size:13;text-anchor:middle;" transform="matrix(1 0 0 1 2043.27 322)" data="{&quot;leading&quot;:&quot;1.3&quot;}">Semibold</text>
        <text style="stroke:none;fill:black;font-family:sans-serif;font-size:13;text-anchor:middle;" transform="matrix(1 0 0 1 2339.98 322)" data="{&quot;leading&quot;:&quot;1.3&quot;}">Bold</text>
        <text style="stroke:none;fill:black;font-family:sans-serif;font-size:13;text-anchor:middle;" transform="matrix(1 0 0 1 2636.69 322)" data="{&quot;leading&quot;:&quot;1.3&quot;}">Heavy</text>
        <text style="stroke:none;fill:black;font-family:sans-serif;font-size:13;text-anchor:middle;" transform="matrix(1 0 0 1 2933.4 322)" data="{&quot;leading&quot;:&quot;1.3&quot;}">Black</text>
        <line style="fill:none;stroke:black;opacity:1;stroke-width:0.5;" x1="263" x2="3036" y1="1903" y2="1903"></line>
        <g transform="matrix(1 0 0 1 263 1933)">
            <path d="M9.24805 0.830078Q10.8691 0.830078 12.2949 0.214844Q13.7207-0.400391 14.8096-1.49414Q15.8984-2.58789 16.5186-4.01367Q17.1387-5.43945 17.1387-7.05078Q17.1387-8.66211 16.5186-10.0879Q15.8984-11.5137 14.8047-12.6074Q13.7109-13.7012 12.2852-14.3164Q10.8594-14.9316 9.23828-14.9316Q7.62695-14.9316 6.20117-14.3164Q4.77539-13.7012 3.69141-12.6074Q2.60742-11.5137 1.9873-10.0879Q1.36719-8.66211 1.36719-7.05078Q1.36719-5.43945 1.9873-4.01367Q2.60742-2.58789 3.69629-1.49414Q4.78516-0.400391 6.21094 0.214844Q7.63672 0.830078 9.24805 0.830078ZM9.24805-0.654297Q7.91992-0.654297 6.7627-1.14746Q5.60547-1.64062 4.73145-2.51953Q3.85742-3.39844 3.36426-4.56055Q2.87109-5.72266 2.87109-7.05078Q2.87109-8.37891 3.35938-9.54102Q3.84766-10.7031 4.72168-11.582Q5.5957-12.4609 6.75293-12.9541Q7.91016-13.4473 9.23828-13.4473Q10.5762-13.4473 11.7334-12.9541Q12.8906-12.4609 13.7695-11.582Q14.6484-10.7031 15.1465-9.54102Q15.6445-8.37891 15.6445-7.05078Q15.6445-5.72266 15.1514-4.56055Q14.6582-3.39844 13.7842-2.51953Q12.9102-1.64062 11.748-1.14746Q10.5859-0.654297 9.24805-0.654297ZM5.83984-7.04102Q5.83984-6.71875 6.04492-6.51855Q6.25-6.31836 6.5918-6.31836L8.50586-6.31836L8.50586-4.39453Q8.50586-4.0625 8.70605-3.85742Q8.90625-3.65234 9.22852-3.65234Q9.56055-3.65234 9.76562-3.85742Q9.9707-4.0625 9.9707-4.39453L9.9707-6.31836L11.8945-6.31836Q12.2266-6.31836 12.4316-6.51855Q12.6367-6.71875 12.6367-7.04102Q12.6367-7.37305 12.4316-7.57812Q12.2266-7.7832 11.8945-7.7832L9.9707-7.7832L9.9707-9.69727Q9.9707-10.0391 9.76562-10.2441Q9.56055-10.4492 9.22852-10.4492Q8.90625-10.4492 8.70605-10.2441Q8.50586-10.0391 8.50586-9.69727L8.50586-7.7832L6.5918-7.7832Q6.25-7.7832 6.04492-7.57812Q5.83984-7.37305 5.83984-7.04102Z"></path>
        </g>
        <g transform="matrix(1 0 0 1 281.867 1933)">
            <path d="M11.709 2.91016Q13.75 2.91016 15.5518 2.12891Q17.3535 1.34766 18.7305-0.0292969Q20.1074-1.40625 20.8887-3.20801Q21.6699-5.00977 21.6699-7.05078Q21.6699-9.0918 20.8887-10.8936Q20.1074-12.6953 18.7305-14.0723Q17.3535-15.4492 15.5469-16.2305Q13.7402-17.0117 11.6992-17.0117Q9.6582-17.0117 7.85645-16.2305Q6.05469-15.4492 4.68262-14.0723Q3.31055-12.6953 2.5293-10.8936Q1.74805-9.0918 1.74805-7.05078Q1.74805-5.00977 2.5293-3.20801Q3.31055-1.40625 4.6875-0.0292969Q6.06445 1.34766 7.86621 2.12891Q9.66797 2.91016 11.709 2.91016ZM11.709 1.25Q9.98047 1.25 8.47656 0.605469Q6.97266-0.0390625 5.83496-1.17676Q4.69727-2.31445 4.05762-3.81836Q3.41797-5.32227 3.41797-7.05078Q3.41797-8.7793 4.05762-10.2832Q4.69727-11.7871 5.83008-12.9297Q6.96289-14.0723 8.4668-14.7119Q9.9707-15.3516 11.6992-15.3516Q13.4277-15.3516 14.9316-14.7119Q16.4355-14.0723 17.5781-12.9297Q18.7207-11.7871 19.3652-10.2832Q20.0098-8.7793 20.0098-7.05078Q20.0098-5.32227 19.3701-3.81836Q18.7305-2.31445 17.5928-1.17676Q16.4551-0.0390625 14.9463 0.605469Q13.4375 1.25 11.709 1.25ZM7.39258-7.04102Q7.39258-6.68945 7.62695-6.46484Q7.86133-6.24023 8.23242-6.24023L10.8789-6.24023L10.8789-3.57422Q10.8789-3.21289 11.1035-2.9834Q11.3281-2.75391 11.6797-2.75391Q12.0508-2.75391 12.2852-2.9834Q12.5195-3.21289 12.5195-3.57422L12.5195-6.24023L15.1758-6.24023Q15.5371-6.24023 15.7715-6.46484Q16.0059-6.68945 16.0059-7.04102Q16.0059-7.41211 15.7715-7.6416Q15.5371-7.87109 15.1758-7.87109L12.5195-7.87109L12.5195-10.5176Q12.5195-10.8984 12.2852-11.1279Q12.0508-11.3574 11.6797-11.3574Q11.3281-11.3574 11.1035-11.1279Q10.8789-10.8984 10.8789-10.5176L10.8789-7.87109L8.23242-7.87109Q7.85156-7.87109 7.62207-7.6416Q7.39258-7.41211 7.39258-7.04102Z"></path>
        </g>
        <g transform="matrix(1 0 0 1 305.646 1933)">
            <path d="M14.9707 5.66406Q17.0605 5.66406 18.96 5.01465Q20.8594 4.36523 22.4512 3.19336Q24.043 2.02148 25.2197 0.429688Q26.3965-1.16211 27.0459-3.06641Q27.6953-4.9707 27.6953-7.05078Q27.6953-9.14062 27.0459-11.04Q26.3965-12.9395 25.2197-14.5312Q24.043-16.123 22.4512-17.2998Q20.8594-18.4766 18.9551-19.126Q17.0508-19.7754 14.9609-19.7754Q12.8711-19.7754 10.9717-19.126Q9.07227-18.4766 7.48535-17.2998Q5.89844-16.123 4.72168-14.5312Q3.54492-12.9395 2.90039-11.04Q2.25586-9.14062 2.25586-7.05078Q2.25586-4.9707 2.90527-3.06641Q3.55469-1.16211 4.72656 0.429688Q5.89844 2.02148 7.49023 3.19336Q9.08203 4.36523 10.9814 5.01465Q12.8809 5.66406 14.9707 5.66406ZM14.9707 3.84766Q13.1641 3.84766 11.5283 3.2959Q9.89258 2.74414 8.53516 1.74805Q7.17773 0.751953 6.17676-0.610352Q5.17578-1.97266 4.62891-3.6084Q4.08203-5.24414 4.08203-7.05078Q4.08203-8.86719 4.62891-10.5029Q5.17578-12.1387 6.17188-13.501Q7.16797-14.8633 8.52539-15.8594Q9.88281-16.8555 11.5186-17.4023Q13.1543-17.9492 14.9609-17.9492Q16.7773-17.9492 18.4131-17.4023Q20.0488-16.8555 21.4111-15.8594Q22.7734-14.8633 23.7695-13.501Q24.7656-12.1387 25.3174-10.5029Q25.8691-8.86719 25.8691-7.05078Q25.8789-5.24414 25.332-3.6084Q24.7852-1.97266 23.7842-0.610352Q22.7832 0.751953 21.4209 1.74805Q20.0586 2.74414 18.4229 3.2959Q16.7871 3.84766 14.9707 3.84766ZM9.45312-7.04102Q9.45312-6.66016 9.71191-6.41113Q9.9707-6.16211 10.3711-6.16211L14.0625-6.16211L14.0625-2.46094Q14.0625-2.06055 14.3115-1.80664Q14.5605-1.55273 14.9414-1.55273Q15.3516-1.55273 15.6055-1.80664Q15.8594-2.06055 15.8594-2.46094L15.8594-6.16211L19.5605-6.16211Q19.9609-6.16211 20.2148-6.41113Q20.4688-6.66016 20.4688-7.04102Q20.4688-7.45117 20.2148-7.70508Q19.9609-7.95898 19.5605-7.95898L15.8594-7.95898L15.8594-11.6504Q15.8594-12.0605 15.6055-12.3145Q15.3516-12.5684 14.9414-12.5684Q14.5605-12.5684 14.3115-12.3096Q14.0625-12.0508 14.0625-11.6504L14.0625-7.95898L10.3711-7.95898Q9.96094-7.95898 9.70703-7.70508Q9.45312-7.45117 9.45312-7.04102Z"></path>
        </g>
        <text style="stroke:none;fill:black;font-family:sans-serif;font-size:13;font-weight:bold;" transform="matrix(1 0 0 1 263 1953)" data="{&quot;leading&quot;:&quot;1.3&quot;}">Design Variations</text>
        <text style="stroke:none;fill:black;font-family:sans-serif;font-size:13;" transform="matrix(1 0 0 1 263 1971)" data="{&quot;leading&quot;:&quot;1.3&quot;}">Symbols are supported in up to nine weights and three scales.</text>
        <text style="stroke:none;fill:black;font-family:sans-serif;font-size:13;" transform="matrix(1 0 0 1 263 1989)" data="{&quot;leading&quot;:&quot;1.3&quot;}">For optimal layout with text and other symbols, vertically align</text>
        <text style="stroke:none;fill:black;font-family:sans-serif;font-size:13;" transform="matrix(1 0 0 1 263 2007)" data="{&quot;leading&quot;:&quot;1.3&quot;}">symbols with the adjacent text.</text>
        <line style="fill:none;stroke:#00AEEF;stroke-width:0.5;opacity:1.0;" x1="776" x2="776" y1="1919" y2="1933"></line>
        <g transform="matrix(1 0 0 1 776 1933)">
            <path d="M3.31055 0.15625Q3.70117 0.15625 3.91602-0.00976562Q4.13086-0.175781 4.26758-0.585938L5.52734-4.0332L11.2891-4.0332L12.5488-0.585938Q12.6855-0.175781 12.9004-0.00976562Q13.1152 0.15625 13.4961 0.15625Q13.8867 0.15625 14.1162-0.0585938Q14.3457-0.273438 14.3457-0.644531Q14.3457-0.869141 14.2383-1.17188L9.6582-13.3691Q9.48242-13.8184 9.17969-14.043Q8.87695-14.2676 8.4082-14.2676Q7.5-14.2676 7.17773-13.3789L2.59766-1.16211Q2.49023-0.859375 2.49023-0.634766Q2.49023-0.263672 2.70996-0.0537109Q2.92969 0.15625 3.31055 0.15625ZM6.00586-5.51758L8.37891-12.0898L8.42773-12.0898L10.8008-5.51758Z"></path>
        </g>
        <line style="fill:none;stroke:#00AEEF;stroke-width:0.5;opacity:1.0;" x1="793.197" x2="793.197" y1="1919" y2="1933"></line>
        <text style="stroke:none;fill:black;font-family:sans-serif;font-size:13;font-weight:bold;" transform="matrix(1 0 0 1 776 1953)" data="{&quot;leading&quot;:&quot;1.3&quot;}">Margins</text>
        <text style="stroke:none;fill:black;font-family:sans-serif;font-size:13;" transform="matrix(1 0 0 1 776 1971)" data="{&quot;leading&quot;:&quot;1.3&quot;}">Leading and trailing margins on the left and right side of each symbol</text>
        <text style="stroke:none;fill:black;font-family:sans-serif;font-size:13;" transform="matrix(1 0 0 1 776 1989)" data="{&quot;leading&quot;:&quot;1.3&quot;}">can be adjusted by modifying the x-location of the margin guidelines.</text>
        <text style="stroke:none;fill:black;font-family:sans-serif;font-size:13;" transform="matrix(1 0 0 1 776 2007)" data="{&quot;leading&quot;:&quot;1.3&quot;}">Modifications are automatically applied proportionally to all</text>
        <text style="stroke:none;fill:black;font-family:sans-serif;font-size:13;" transform="matrix(1 0 0 1 776 2025)" data="{&quot;leading&quot;:&quot;1.3&quot;}">scales and weights.</text>
        <g transform="matrix(1 0 0 1 1289 1933)">
            <path d="M2.8418 1.86523L4.54102 3.57422Q5.18555 4.22852 5.90332 4.17969Q6.62109 4.13086 7.31445 3.35938L18.0078-8.42773L17.041-9.4043L6.42578 2.27539Q6.16211 2.57812 5.89355 2.61719Q5.625 2.65625 5.27344 2.30469L4.10156 1.14258Q3.75 0.791016 3.79395 0.522461Q3.83789 0.253906 4.14062-0.0195312L15.6152-10.8203L14.6387-11.7871L3.04688-0.898438Q2.30469-0.214844 2.25098 0.498047Q2.19727 1.21094 2.8418 1.86523ZM9.25781-16.3281Q8.94531-16.0254 8.90625-15.6348Q8.86719-15.2441 9.04297-14.9512Q9.21875-14.6777 9.55566-14.541Q9.89258-14.4043 10.3809-14.5215Q11.4746-14.7754 12.5977-14.7314Q13.7207-14.6875 14.7949-13.9844L14.209-12.5293Q13.9551-11.9043 14.0674-11.4404Q14.1797-10.9766 14.5801-10.5664L16.875-8.25195Q17.2363-7.88086 17.5781-7.82227Q17.9199-7.76367 18.3398-7.8418L19.4043-8.03711L20.0684-7.36328L20.0293-6.80664Q20-6.43555 20.1221-6.12305Q20.2441-5.81055 20.6055-5.44922L21.3672-4.70703Q21.7285-4.3457 22.1533-4.33105Q22.5781-4.31641 22.9297-4.66797L25.8398-7.58789Q26.1914-7.93945 26.1816-8.35449Q26.1719-8.76953 25.8105-9.13086L25.0391-9.89258Q24.6875-10.2539 24.3799-10.3857Q24.0723-10.5176 23.7109-10.4883L23.1348-10.4395L22.4902-11.0742L22.7344-12.1973Q22.832-12.6172 22.6953-12.9834Q22.5586-13.3496 22.1191-13.7891L19.9219-15.9766Q18.6719-17.2168 17.2607-17.8369Q15.8496-18.457 14.4189-18.4814Q12.9883-18.5059 11.665-17.959Q10.3418-17.4121 9.25781-16.3281ZM10.752-15.957Q11.6602-16.6211 12.7002-16.9043Q13.7402-17.1875 14.8047-17.085Q15.8691-16.9824 16.8701-16.5137Q17.8711-16.0449 18.7012-15.2051L21.1328-12.793Q21.3086-12.6172 21.3525-12.4512Q21.3965-12.2852 21.3379-12.0312L21.0156-10.5469L22.5195-9.0625L23.5059-9.12109Q23.6914-9.13086 23.7891-9.09668Q23.8867-9.0625 24.0332-8.91602L24.6094-8.33984L22.168-5.89844L21.5918-6.47461Q21.4453-6.62109 21.4062-6.71875Q21.3672-6.81641 21.377-7.01172L21.4453-7.98828L19.9512-9.47266L18.4277-9.21875Q18.1836-9.16992 18.042-9.2041Q17.9004-9.23828 17.7148-9.41406L15.7129-11.416Q15.5176-11.5918 15.4932-11.7529Q15.4688-11.9141 15.5859-12.1875L16.4648-14.2773Q15.293-15.3711 13.8281-15.791Q12.3633-16.2109 10.8398-15.7617Q10.7227-15.7324 10.6885-15.8057Q10.6543-15.8789 10.752-15.957Z"></path>
        </g>
        <text style="stroke:none;fill:black;font-family:sans-serif;font-size:13;font-weight:bold;" transform="matrix(1 0 0 1 1289 1953)" data="{&quot;leading&quot;:&quot;1.3&quot;}">Exporting</text>
        <text style="stroke:none;fill:black;font-family:sans-serif;font-size:13;" transform="matrix(1 0 0 1 1289 1971)" data="{&quot;leading&quot;:&quot;1.3&quot;}">Symbols should be outlined when exporting to ensure the</text>
        <text style="stroke:none;fill:black;font-family:sans-serif;font-size:13;" transform="matrix(1 0 0 1 1289 1989)" data="{&quot;leading&quot;:&quot;1.3&quot;}">design is preserved when submitting to Xcode.</text>
        <text id="template-version" style="stroke:none;fill:black;font-family:sans-serif;font-size:13;text-anchor:end;" transform="matrix(1 0 0 1 3036 1933)" data="{&quot;leading&quot;:&quot;1.3&quot;}">Template v.3.0</text>
        <text style="stroke:none;fill:black;font-family:sans-serif;font-size:13;text-anchor:end;" transform="matrix(1 0 0 1 3036 1951)" data="{&quot;leading&quot;:&quot;1.3&quot;}">Requires Xcode 13 or greater</text>
        <text id="descriptive-name" style="stroke:none;fill:black;font-family:sans-serif;font-size:13;text-anchor:end;" transform="matrix(1 0 0 1 3036 1969)" data="{&quot;leading&quot;:&quot;1.3&quot;}">Generated from custom.pencil.circle</text>
        <text style="stroke:none;fill:black;font-family:sans-serif;font-size:13;text-anchor:end;" transform="matrix(1 0 0 1 3036 1987)" data="{&quot;leading&quot;:&quot;1.3&quot;}">Typeset at 100 points</text>
        <text style="stroke:none;fill:black;font-family:sans-serif;font-size:13;" transform="matrix(1 0 0 1 263 726)" data="{&quot;leading&quot;:&quot;1.3&quot;}">Small</text>
        <text style="stroke:none;fill:black;font-family:sans-serif;font-size:13;" transform="matrix(1 0 0 1 263 1156)" data="{&quot;leading&quot;:&quot;1.3&quot;}">Medium</text>
        <text style="stroke:none;fill:black;font-family:sans-serif;font-size:13;" transform="matrix(1 0 0 1 263 1586)" data="{&quot;leading&quot;:&quot;1.3&quot;}">Large</text>
    </g>
    <g id="Guides">
        <g id="H-reference" style="fill:#27AAE1;stroke:none;" transform="matrix(1 0 0 1 339 696)">
            <path d="M0.976562 0L3.66211 0L29.3457-67.1387L30.0293-67.1387L30.0293-70.459L28.125-70.459ZM11.6699-24.4629L46.9727-24.4629L46.2402-26.709L12.4512-26.709ZM55.127 0L57.7637 0L30.6152-70.459L29.4434-70.459L29.4434-67.1387Z"></path>
        </g>
        <line id="Baseline-S" style="fill:none;stroke:#27AAE1;opacity:1;stroke-width:0.5;" x1="263" x2="3036" y1="696" y2="696"></line>
        <line id="Capline-S" style="fill:none;stroke:#27AAE1;opacity:1;stroke-width:0.5;" x1="263" x2="3036" y1="625.541" y2="625.541"></line>
        <g id="H-reference" style="fill:#27AAE1;stroke:none;" transform="matrix(1 0 0 1 339 1126)">
            <path d="M0.976562 0L3.66211 0L29.3457-67.1387L30.0293-67.1387L30.0293-70.459L28.125-70.459ZM11.6699-24.4629L46.9727-24.4629L46.2402-26.709L12.4512-26.709ZM55.127 0L57.7637 0L30.6152-70.459L29.4434-70.459L29.4434-67.1387Z"></path>
        </g>
        <line id="Baseline-M" style="fill:none;stroke:#27AAE1;opacity:1;stroke-width:0.5;" x1="263" x2="3036" y1="1126" y2="1126"></line>
        <line id="Capline-M" style="fill:none;stroke:#27AAE1;opacity:1;stroke-width:0.5;" x1="263" x2="3036" y1="1055.54" y2="1055.54"></line>
        <g id="H-reference" style="fill:#27AAE1;stroke:none;" transform="matrix(1 0 0 1 339 1556)">
            <path d="M0.976562 0L3.66211 0L29.3457-67.1387L30.0293-67.1387L30.0293-70.459L28.125-70.459ZM11.6699-24.4629L46.9727-24.4629L46.2402-26.709L12.4512-26.709ZM55.127 0L57.7637 0L30.6152-70.459L29.4434-70.459L29.4434-67.1387Z"></path>
        </g>
        <line id="Baseline-L" style="fill:none;stroke:#27AAE1;opacity:1;stroke-width:0.5;" x1="263" x2="3036" y1="1556" y2="1556"></line>
        <line id="Capline-L" style="fill:none;stroke:#27AAE1;opacity:1;stroke-width:0.5;" x1="263" x2="3036" y1="1485.54" y2="1485.54"></line>
        <line id="left-margin-Ultralight-S" style="fill:none;stroke:#00AEEF;stroke-width:0.5;opacity:1.0;" x1="507.60099853515624" x2="507.60099853515624" y1="600.784" y2="720.121"></line>
        <line id="right-margin-Ultralight-S" style="fill:none;stroke:#00AEEF;stroke-width:0.5;opacity:1.0;" x1="611.8209985351563" x2="611.8209985351563" y1="600.784" y2="720.121"></line>
        <line id="left-margin-Regular-S" style="fill:none;stroke:#00AEEF;stroke-width:0.5;opacity:1.0;" x1="1396.3858652114868" x2="1396.3858652114868" y1="600.784" y2="720.121"></line>
        <line id="right-margin-Regular-S" style="fill:none;stroke:#00AEEF;stroke-width:0.5;opacity:1.0;" x1="1503.3040761947632" x2="1503.3040761947632" y1="600.784" y2="720.121"></line>
        <line id="left-margin-Black-S" style="fill:none;stroke:#00AEEF;stroke-width:0.5;opacity:1.0;" x1="2877.4000244140625" x2="2877.4000244140625" y1="600.784" y2="720.121"></line>
        <line id="right-margin-Black-S" style="fill:none;stroke:#00AEEF;stroke-width:0.5;opacity:1.0;" x1="2989.4000244140625" x2="2989.4000244140625" y1="600.784" y2="720.121"></line>
    </g>
<g id="Symbols"><g id="Ultralight-S" transform="matrix(1,0,0,1,504.96099853515625,606.0205078125)"><path d="M96.36 31.13085c-2.28855 3.42078-5.185919999999999 6.42765-8.52348 8.83665 0.03285 0.73365 0.048179999999999994 1.46949 0.048179999999999994 2.20752 0 22.56138-17.16741 48.57639-48.57201 48.57639-9.64257 0-22.20879-3.37698-26.17269-7.669379999999999 1.33809 0.15986999999999998 2.69808 0.2409 4.0734 0.2409 8.00226 0 15.362849999999998-2.7309300000000003 21.20358-7.31022-7.47009-0.13797-13.7751-5.07642-15.949770000000001-11.85885 3.39888 0.53436 7.71099-0.29346 7.71099-0.29346s-13.35024-2.29074-13.696259999999999-16.95279c3.8609699999999996 2.23818 7.73289 2.13525 7.73289 2.13525s-7.7000399999999996-4.73916-7.59273-14.208720000000001c0.06351-5.584499999999999 2.30826-8.58699 2.30826-8.58699 14.587589999999999 17.96238 35.191109999999995 17.839740000000003 35.191109999999995 17.839740000000003s-0.44238-2.5513500000000002-0.44238-3.88944c0-9.42576 7.6431000000000004-17.07324 17.07324-17.07324 4.90998 0 9.346919999999999 2.07393 12.4611 5.39397 3.8916299999999997-0.76869 7.54674-2.19 10.84269-4.14567-1.4892 5.963369999999999-7.50513 9.445469999999998-7.50513 9.445469999999998S91.70186999999999 33.24858 96.36 31.13085zM22.00293 85.20852000000001c32.30688 12.323129999999999 63.09828-10.332419999999999 63.69177-43.03131 0.00438-0.27813-0.06788999999999999-1.2351599999999998-0.04599-2.0564099999999996 0.02847-1.00959 0.35697-1.51548 1.06653-2.06955 0.70956-0.55407 1.6074599999999999-1.20669 2.3739600000000003-1.87245 0.25623-0.22119 0.11388-0.6394799999999999-0.17082-0.6285299999999999-2.4177600000000004 0.0876-4.1237699999999995-0.01752-5.28447-0.07227-0.71394-0.03504-1.14099-1.00521-0.52998-1.5089099999999998 1.08843-0.8957099999999999 2.7572099999999997-2.20314 4.747920000000001-3.93324 0.28032-0.24309 0.16863-0.51246-0.17739-0.40076999999999996-1.44759 0.46209-2.88204 0.79935-3.8828699999999996 1.00959-0.81906 0.17082-1.4541600000000001 0.0657-2.00604-0.54531-2.4396600000000004-2.6936999999999998-6.60504-4.78296-11.03103-4.78296-9.800249999999998 0-14.88105 8.19498-14.88105 14.88324 0 1.2855299999999998 0.23871 2.70027 0.45770999999999995 3.8609699999999996 0.32411999999999996 1.72134-0.44675999999999993 2.40462-2.2228499999999998 2.29731-6.35538-0.38325-22.25478-2.72436-34.57353-16.10088-2.7615899999999995 9.2418 3.0134399999999997 15.02559 6.68388 17.73024 1.39503 1.0292999999999999 1.2264000000000002 2.59734-0.91104 2.86014-1.64469 0.20367-3.7711799999999998 0.21462-6.26997-0.48399 1.20012 7.8183 9.841859999999999 10.97409 13.78824 12.1107 0.8935199999999999 0.25842 1.39941 1.4651100000000001-0.19929 2.4309000000000003-1.37313 0.83001-3.4930499999999998 1.63155-6.63132 1.73886 3.0484799999999996 5.212199999999999 9.29436 6.57876 13.68093 7.21167 1.9425299999999999 0.28032 2.74407 2.19876 0.6569999999999999 3.79746C36.42846 80.64456 29.97015 84.35223 22.00293 85.20852000000001z"></path></g><g id="Regular-S" transform="matrix(1,0,0,1,1392.564970703125,603.4905078125)"><path d="M102.03 30.63406c-2.3628 3.53167-5.353890000000001 6.63553-8.79964 9.12363 0.03222 0.75717 0.050120000000000005 1.51613 0.050120000000000005 2.28046 0 23.29327-17.72458 50.15222-50.14864 50.15222-9.95598 0-22.9299-3.48692-27.02005-7.9171700000000005 1.38188 0.16468 2.78524 0.24702000000000002 4.2065 0.24702000000000002 8.260850000000001 0 15.861190000000002-2.81925 21.8917-7.546640000000001-7.71311-0.14141-14.22334-5.24112-16.46621-12.2436 3.5084 0.55132 7.96013-0.3043 7.96013-0.3043s-13.783000000000001-2.3663800000000004-14.13921-17.50441c3.98454 2.31089 7.9834000000000005 2.2034900000000004 7.9834000000000005 2.2034900000000004s-7.94939-4.89386-7.83841-14.66905c0.06623-5.76559 2.3824899999999998-8.865870000000001 2.3824899999999998-8.865870000000001 15.06106 18.546190000000003 36.33342 18.4191 36.33342 18.4191s-0.45645-2.63309-0.45645-4.01497c0-9.732230000000001 7.890320000000001-17.62613 17.62613-17.62613 5.06928 0 9.649890000000001 2.14084 12.864730000000002 5.56869 4.01855-0.7929700000000001 7.791869999999999-2.26077 11.19645-4.27989-1.53761 6.1576-7.7489099999999995 9.75192-7.7489099999999995 9.75192S97.22206 32.81965 102.03 30.63406zM43.21239 85.03037c14.91786 0.67304 41.449239999999996-11.445260000000001 42.90809-42.99222 0.012530000000000001-0.2864 0.057280000000000005-0.80013 0.030430000000000002-1.2637399999999999-0.0358-0.5978600000000001 0.26133999999999996-0.9952400000000001 0.51015-1.25658 0.40812000000000004-0.43139 0.85025-0.95586 1.2709-1.73809 0.35621-0.66051 0.13783-0.94154-0.30251-1.01851-0.29893000000000003-0.051910000000000005-0.6086-0.12708999999999998-0.95228-0.20227-0.61397-0.13425-0.88068-0.70884-0.5907-1.29238 0.1969-0.39559 0.46003-0.9433300000000001 0.65335-1.51434 0.19153-0.56206-0.057280000000000005-0.69094-0.48509-0.61576-0.35442 0.060860000000000004-0.76433 0.13783-1.13128 0.20585-0.5692200000000001 0.10561-1.15813-0.00895-1.71482-0.64798-2.15874-2.48452-4.49648-3.16472-7.8151399999999995-3.16472-5.81034 0-10.466130000000001 4.69517-10.466130000000001 10.466130000000001 0 1.58952 0.40991000000000005 3.4994500000000004 0.69631 5.34494 0.53521 3.4457500000000003-0.9898700000000001 6.69639-6.27216 6.28469-7.75965-0.60502-19.698950000000004-2.30373-28.78678-9.01086 0.90395 1.78821 3.07522 4.551970000000001 4.79899 6.62658 1.33892 1.611 0.9218500000000001 4.10626-0.80908 4.918920000000001-0.86815 0.40812000000000004-1.9206699999999999 0.74822-3.13071 0.9683900000000001 3.17546 2.5686500000000003 6.82169 4.233350000000001 9.612300000000001 5.41833 3.49766 1.48391 4.46068 3.8950400000000003 2.3126800000000003 6.297219999999999-0.77149 0.86278-1.76852 1.73451-3.05732 2.5095799999999997 1.55014 1.07042 4.149220000000001 1.96721 7.12241 2.45051 3.00183 0.48867000000000005 4.9761999999999995 3.7840599999999998 1.8902400000000001 7.87242C48.002430000000004 81.66696 45.85443 83.57868 43.21239 85.03037z"></path></g><g id="Black-S" transform="matrix(1,0,0,1,2870.4000244140625,597.7705078125)"><path d="M110.25 34.37875c-2.5025 3.7502499999999994-5.67 7.0455-9.31875 9.691500000000001 0.035 0.80325 0.0525 1.61175 0.0525 2.4219999999999997C100.98375 71.22675 82.20975 99.75 47.86775 99.75 37.324 99.75 23.583000000000002 96.047 19.25 91.34125c1.4629999999999999 0.17500000000000002 2.9505 0.2625 4.4555 0.2625 8.748249999999999 0 16.8-2.99425 23.185750000000002-8.015-8.169-0.1505-15.064-5.565-17.4405-13.0025 3.717 0.5845 8.4315-0.322 8.4315-0.322s-14.598500000000001-2.513-14.9765-18.5885c4.221 2.4535 8.456 2.3415 8.456 2.3415s-8.41925-5.197500000000001-8.302-15.57675c0.06825-6.1232500000000005 2.5235-9.415 2.5235-9.415 15.95125 19.696250000000003 38.48075 19.561500000000002 38.48075 19.561500000000002s-0.48300000000000004-2.7965-0.48300000000000004-4.263c0-10.3355 8.356250000000001-18.719749999999998 18.66725-18.719749999999998 5.369 0 10.219999999999999 2.275 13.625499999999999 5.91325 4.256-0.8434999999999999 8.253-2.4010000000000002 11.858-4.54475-1.62925 6.53975-8.207500000000001 10.3565-8.207500000000001 10.3565S105.1575 36.69925 110.25 34.37875zM60.424 84.3605c2.8804999999999996-0.448 26.53875-7.509250000000001 28.26775-37.870000000000005 0.02625-0.47250000000000003 0.00875-2.2015000000000002-0.021-2.84725-0.00175-0.056 0.059500000000000004-0.19775 0.09275-0.231 0.09975-0.09975 0.196-0.23275 0.2625-0.3885 0.02625-0.059500000000000004 0.0175-0.14175000000000001-0.04725-0.161-0.12250000000000001-0.035-0.22225-0.07525-0.29575-0.10675-0.08575-0.036750000000000005-0.08750000000000001-0.1085-0.03325-0.189s0.11725000000000001-0.19075 0.14875000000000002-0.322c0.00875-0.035-0.007-0.0945-0.07875-0.09625-0.08925-0.00175-0.16625 0.00875-0.22225 0.007-0.059500000000000004-0.00175-0.14700000000000002-0.0525-0.17500000000000002-0.077-0.88025-0.8067500000000001-2.527-2.5812500000000003-5.07325-2.5812500000000003-2.4202500000000002 0-5.67525 2.30825-5.67525 9.35375 0 2.205 0.036750000000000005 4.5675 0.11025 6.88275 0.08575 2.67225-2.2417499999999997 5.27625-5.9535 5.187-6.1215-0.14875000000000002-15.67125-0.896-23.320500000000003-3.801 0.25725 0.8155 0.609 1.50325 0.94325 2.0404999999999998 0.5285 0.8505 0.5005 1.7552499999999998-0.32375 2.2435-0.8242499999999999 0.49000000000000005-1.9600000000000002 1.03425-3.2095000000000002 1.26 3.0135 1.7885 6.11975 3.03975 7.9887500000000005 3.7135 1.078 0.3885 1.7885 1.295 1.4735 2.39925-0.30974999999999997 1.08325-0.9660000000000001 2.548-2.3555 4.09325 1.442 0.43925000000000003 4.753 0.651 7.250249999999999 0.749 1.7657499999999997 0.07 3.0677499999999998 1.51375 2.765 3.423C62.58 79.3415 61.852000000000004 82.334 60.424 84.3605z"></path></g></g></svg>